# xmcd
#
# Track frame offsets: 
#        150
#        19723
#        38079
#        61133
#        78619
#        96642
#        107685
#        124752
#        145044
#        159115
#        172176
#        184253
#        200773
#        218120
#        236455
#        247750
#        265129
#        279253
#        292235
#
# Disc length: 4082 seconds
#
# Revision: 0
# Processed by: cddbd v1.5.2PL0 Copyright (c) Steve Scherf et al.
# Submitted via: ExactAudioCopy v1.3
#
DISCID=120ff013
DTITLE=Alan Jackson - The Very Best Of Alan Jackson, Vol 1
DYEAR=2005
DGENRE=Country
TTITLE0=Gone Country
TTITLE1=Drive (For Daddy Gene)
TTITLE2=Where Were You (When the World Stopped Turning)
TTITLE3=It's Five O'clock Somewhere
TTITLE4=Chattahoochee [Extended Mix]
TTITLE5=She's Got The Rhythm (And I Got THe Blues)
TTITLE6=Midnight In Montgomery
TTITLE7=Little Man
TTITLE8=Pop A Top
TTITLE9=Don't Rock The Jukebox
TTITLE10=Little Bitty
TTITLE11=Here In The Real World
TTITLE12=Livin' on Love
TTITLE13=Who's Cheatin' Who
TTITLE14=Tall, Tall Trees
TTITLE15=Right On The Money
TTITLE16=Chasin' That Neon Rainbow
TTITLE17=It Must Be Love
TTITLE18=Everything I Love
EXTD=
EXTT0=
EXTT1=
EXTT2=
EXTT3=
EXTT4=
EXTT5=
EXTT6=
EXTT7=
EXTT8=
EXTT9=
EXTT10=
EXTT11=
EXTT12=
EXTT13=
EXTT14=
EXTT15=
EXTT16=
EXTT17=
EXTT18=
PLAYORDER=
